# xmcd
#
# Track frame offsets: 
#        150
#        18030
#        35125
#        44602
#        63887
#        79117
#        95365
#        114942
#        124057
#        148955
#
# Disc length: 2181 seconds
#
# Revision: 8
# Processed by: cddbd v1.5.2PL0 Copyright (c) Steve Scherf et al.
# Submitted via: ExactAudioCopyFreeDBPlugin 1.0
#
DISCID=8208830a
DTITLE=Bill Withers - Greatest Hits
DYEAR=1980
DGENRE=Soul
TTITLE0=Just The Two Of Us
TTITLE1=Use Me
TTITLE2=Ain't No Sunshine
TTITLE3=Lovely Day
TTITLE4=I Want To Spend The Night
TTITLE5=Soul Shadows
TTITLE6=Lean On Me
TTITLE7=Grandma's Hands
TTITLE8=Who Is He What Is He To You
TTITLE9=Hello Like Before
EXTD=YEAR: 1980
EXTT0=
EXTT1=
EXTT2=
EXTT3=
EXTT4=
EXTT5=
EXTT6=
EXTT7=
EXTT8=
EXTT9=
PLAYORDER=
